<svg xmlns="http://www.w3.org/2000/svg" viewBox="-5.542 -58.542 277.083 277.083" role="img" aria-label="Career Match logo">

<path d="M 92.000,152.024 L 86.000,152.577 L 76.000,152.505 L 67.000,151.466 L 62.000,150.367 L 56.000,148.489 L 50.000,146.095 L 43.000,142.319 L 37.000,138.456 L 32.000,134.455 L 26.547,129.000 L 23.933,126.000 L 20.885,122.000 L 17.617,117.000 L 13.933,110.000 L 12.630,107.000 L 11.333,103.000 L 10.814,102.000 L 10.379,100.000 L 9.684,98.000 L 9.097,95.000 L 8.695,94.000 L 7.823,88.000 L 7.501,83.000 L 7.630,74.000 L 8.410,69.000 L 8.668,66.000 L 9.287,64.000 L 9.743,61.000 L 11.699,55.000 L 14.666,48.000 L 17.843,42.000 L 19.754,39.000 L 22.661,35.000 L 27.877,29.000 L 31.000,25.948 L 34.000,23.353 L 39.000,19.643 L 45.000,15.874 L 51.000,12.810 L 57.000,10.474 L 65.000,8.367 L 73.000,6.966 L 81.000,6.499 L 90.000,6.985 L 98.000,8.205 L 106.000,10.412 L 112.000,12.758 L 116.000,14.681 L 120.000,16.892 L 124.000,19.595 L 126.960,22.000 L 127.904,23.000 L 128.228,24.000 L 128.163,26.000 L 127.000,27.718 L 123.000,31.643 L 114.000,41.033 L 113.000,41.783 L 112.000,42.068 L 110.000,41.074 L 105.000,37.789 L 100.000,35.517 L 95.000,33.795 L 91.000,32.869 L 87.000,32.300 L 83.000,32.033 L 79.000,32.086 L 73.000,32.818 L 70.000,33.459 L 66.000,34.623 L 63.000,35.655 L 59.000,37.508 L 55.000,39.876 L 51.000,42.855 L 47.000,46.508 L 43.747,50.000 L 40.895,54.000 L 38.724,58.000 L 35.697,65.000 L 35.230,67.000 L 34.791,68.000 L 33.669,74.000 L 33.606,85.000 L 33.767,87.000 L 34.358,89.000 L 34.825,92.000 L 35.298,93.000 L 35.829,95.000 L 37.573,99.000 L 37.826,100.000 L 38.483,101.000 L 39.872,104.000 L 41.838,107.000 L 44.000,109.789 L 47.000,113.066 L 49.025,115.000 L 53.000,118.158 L 58.000,121.320 L 59.000,121.674 L 62.000,123.334 L 67.000,125.218 L 71.000,126.366 L 77.000,127.273 L 82.000,127.442 L 87.000,127.212 L 93.000,126.223 L 96.000,125.416 L 99.000,124.420 L 104.000,122.268 L 106.000,121.211 L 110.000,118.560 L 111.000,118.123 L 112.000,117.844 L 113.000,118.020 L 114.000,118.475 L 115.000,119.355 L 127.558,132.000 L 128.207,133.000 L 128.324,134.000 L 128.176,136.000 L 127.000,137.339 L 123.000,140.369 L 120.000,142.372 L 116.000,144.518 L 110.000,147.331 L 105.000,149.154 L 101.000,150.393 L 97.000,151.289 L 92.000,152.024 Z" fill="#173F35" fill-rule="evenodd"/>
<path d="M 253.000,144.177 L 252.000,144.522 L 251.000,144.560 L 236.000,144.606 L 235.000,144.218 L 233.344,143.000 L 232.546,142.000 L 231.707,140.000 L 231.537,123.000 L 231.613,55.000 L 231.517,54.000 L 231.000,53.400 L 219.000,65.182 L 210.000,74.417 L 203.107,81.000 L 197.339,87.000 L 182.000,102.201 L 180.000,104.009 L 179.000,104.248 L 177.000,104.302 L 176.000,104.109 L 175.000,103.302 L 164.000,92.408 L 158.000,86.756 L 140.000,68.794 L 137.000,66.093 L 136.437,67.000 L 136.498,83.000 L 136.333,84.000 L 136.000,84.626 L 135.000,85.608 L 134.000,86.044 L 133.000,86.090 L 129.000,85.950 L 99.000,85.935 L 98.000,86.527 L 96.061,90.000 L 95.000,91.284 L 93.000,93.160 L 90.000,95.127 L 88.000,96.095 L 84.000,97.163 L 80.000,97.208 L 75.273,96.000 L 71.498,94.000 L 68.000,90.829 L 66.603,89.000 L 64.905,86.000 L 63.821,82.000 L 63.777,78.000 L 64.618,74.000 L 66.616,70.000 L 69.000,67.430 L 71.000,65.729 L 73.000,64.530 L 76.000,63.096 L 80.000,62.275 L 83.000,62.321 L 85.000,62.630 L 89.000,63.850 L 91.000,64.958 L 92.512,66.000 L 94.000,67.337 L 96.281,70.000 L 98.000,72.901 L 99.000,73.270 L 114.000,73.248 L 115.000,72.962 L 115.414,72.000 L 115.355,55.000 L 115.404,54.000 L 115.838,53.000 L 125.331,44.000 L 132.000,36.843 L 136.000,33.072 L 137.000,32.387 L 138.000,32.483 L 140.949,35.000 L 156.000,49.744 L 170.124,64.000 L 177.000,70.685 L 178.000,71.346 L 180.585,69.000 L 223.000,25.811 L 232.000,16.882 L 234.000,15.496 L 236.000,14.902 L 250.000,14.906 L 252.000,15.142 L 253.000,15.631 L 254.756,17.000 L 255.606,18.000 L 256.655,20.000 L 256.857,28.000 L 256.865,139.000 L 256.788,140.000 L 255.687,142.000 L 254.806,143.000 L 253.000,144.177 Z" fill="#2EBB68" fill-rule="evenodd"/>
</svg>